<svg width="80" height="80" viewBox="0 0 80 80" fill="none" xmlns="http://www.w3.org/2000/svg">
<circle cx="40" cy="40" r="40" fill="#0E9ED2"/>
<path d="M21.016 41.456C19.432 41.456 18.432 40.944 18.016 39.92C17.616 38.896 17.76 37.272 18.448 35.048C18.768 34.008 19.08 32.992 19.384 32C19.688 31.008 19.984 30.032 20.272 29.072C20.576 28.112 20.872 27.176 21.16 26.264C21.448 25.336 21.728 24.424 22 23.528C22.272 22.616 22.552 21.72 22.84 20.84C22.984 20.36 23.088 19.96 23.152 19.64C23.216 19.32 23.224 19.08 23.176 18.92C23.128 18.744 23.016 18.656 22.84 18.656C22.664 18.656 22.448 18.776 22.192 19.016C21.936 19.24 21.64 19.576 21.304 20.024C20.984 20.456 20.6 20.992 20.152 21.632C19.896 22 19.648 22.224 19.408 22.304C19.184 22.368 18.92 22.312 18.616 22.136C18.376 21.992 18.24 21.816 18.208 21.608C18.176 21.384 18.248 21.136 18.424 20.864C19.032 19.92 19.616 19.136 20.176 18.512C20.736 17.888 21.288 17.424 21.832 17.12C22.376 16.8 22.912 16.64 23.44 16.64C24.032 16.64 24.488 16.808 24.808 17.144C25.144 17.464 25.32 17.944 25.336 18.584C25.368 19.208 25.248 19.952 24.976 20.816C24.704 21.712 24.416 22.64 24.112 23.6C23.808 24.544 23.504 25.512 23.2 26.504C22.896 27.48 22.592 28.464 22.288 29.456C21.984 30.432 21.68 31.4 21.376 32.36C21.088 33.32 20.808 34.248 20.536 35.144C20.216 36.184 20.024 37.016 19.96 37.64C19.912 38.264 20 38.72 20.224 39.008C20.448 39.28 20.808 39.416 21.304 39.416C21.928 39.416 22.56 39.264 23.2 38.96C23.84 38.64 24.488 38.2 25.144 37.64C25.816 37.064 26.488 36.384 27.16 35.6C27.832 34.816 28.488 33.952 29.128 33.008C29.784 32.048 30.416 31.04 31.024 29.984C31.648 28.912 32.232 27.8 32.776 26.648C33.272 25.672 33.728 24.68 34.144 23.672C34.56 22.648 34.92 21.68 35.224 20.768C35.528 19.856 35.744 19.072 35.872 18.416C35.536 18.304 35.28 18.128 35.104 17.888C34.944 17.632 34.864 17.368 34.864 17.096C34.864 16.76 34.976 16.464 35.2 16.208C35.44 15.936 35.8 15.8 36.28 15.8C36.664 15.8 37.032 15.936 37.384 16.208C37.752 16.464 38.016 16.824 38.176 17.288C38.288 17.464 38.504 17.64 38.824 17.816C39.144 17.992 39.512 18.16 39.928 18.32C40.344 18.464 40.752 18.568 41.152 18.632C41.392 18.664 41.544 18.776 41.608 18.968C41.672 19.144 41.672 19.336 41.608 19.544C41.56 19.752 41.456 19.936 41.296 20.096C41.152 20.256 40.984 20.328 40.792 20.312C40.536 20.296 40.264 20.256 39.976 20.192C39.688 20.128 39.408 20.048 39.136 19.952C38.864 19.84 38.608 19.728 38.368 19.616C38.128 19.488 37.928 19.368 37.768 19.256C37.608 19.928 37.4 20.664 37.144 21.464C36.904 22.264 36.6 23.112 36.232 24.008C35.88 24.888 35.472 25.808 35.008 26.768C34.24 28.368 33.464 29.84 32.68 31.184C31.896 32.528 31.104 33.744 30.304 34.832C29.52 35.92 28.736 36.88 27.952 37.712C27.168 38.528 26.384 39.216 25.6 39.776C24.816 40.336 24.04 40.752 23.272 41.024C22.52 41.312 21.768 41.456 21.016 41.456Z" fill="#414141"/>
<path d="M34.488 59.384C33.8053 59.384 33.112 59.3627 32.408 59.32C31.704 59.2987 31.0107 59.2453 30.328 59.16C28.8133 59.032 28.056 58.5413 28.056 57.688C28.056 57.2613 28.2267 56.7493 28.568 56.152C29.3787 54.68 30.2107 53.2187 31.064 51.768C31.9173 50.296 32.76 48.824 33.592 47.352C33.848 46.8827 34.1787 46.296 34.584 45.592C34.9893 44.888 35.3947 44.216 35.8 43.576C35.992 43.2773 36.2693 42.9787 36.632 42.68C36.9947 42.36 37.368 42.1573 37.752 42.072C37.304 42.0933 36.728 42.1253 36.024 42.168C35.3413 42.2107 34.6373 42.296 33.912 42.424C33.208 42.5307 32.568 42.712 31.992 42.968C31.4373 43.2027 31.0427 43.5333 30.808 43.96C30.7227 44.152 30.648 44.344 30.584 44.536C30.52 44.728 30.488 44.92 30.488 45.112C30.488 45.6027 30.6587 45.9547 31 46.168C31.0213 46.168 31.032 46.1893 31.032 46.232C31.032 46.2747 30.9893 46.3173 30.904 46.36C30.84 46.4027 30.776 46.4133 30.712 46.392C30.52 46.2853 30.2853 46.0293 30.008 45.624C29.7307 45.1973 29.56 44.8453 29.496 44.568C29.432 44.312 29.4 44.0773 29.4 43.864C29.4 43.3093 29.5813 42.8827 29.944 42.584C30.3067 42.264 30.7653 42.04 31.32 41.912C31.8747 41.7627 32.44 41.6773 33.016 41.656C33.592 41.6133 34.104 41.592 34.552 41.592C35.6827 41.592 36.8133 41.5813 37.944 41.56C39.0747 41.5173 40.1947 41.496 41.304 41.496C41.7947 41.496 42.2747 41.496 42.744 41.496C43.2347 41.496 43.7147 41.5173 44.184 41.56C44.7173 41.5813 45.08 41.688 45.272 41.88C45.4853 42.072 45.592 42.3067 45.592 42.584C45.592 42.9253 45.4747 43.32 45.24 43.768C45.0267 44.1947 44.824 44.5893 44.632 44.952C44.5467 45.1227 44.408 45.2507 44.216 45.336C44.024 45.4 43.9493 45.336 43.992 45.144C44.0987 44.7173 44.152 44.2907 44.152 43.864C44.152 43.48 44.0773 43.1387 43.928 42.84C43.8 42.52 43.544 42.296 43.16 42.168C42.7973 42.0613 42.232 42.008 41.464 42.008C41.1867 42.008 40.8987 42.0187 40.6 42.04C40.3227 42.04 40.0347 42.0507 39.736 42.072C38.8827 42.136 38.3067 42.36 38.008 42.744C37.304 43.7253 36.6213 44.792 35.96 45.944C35.32 47.0747 34.7013 48.152 34.104 49.176C34.0827 49.2187 34.072 49.272 34.072 49.336C34.072 49.464 34.168 49.528 34.36 49.528C35.1067 49.528 35.9067 49.5387 36.76 49.56C37.6347 49.5813 38.4027 49.5813 39.064 49.56C39.2133 49.5387 39.4373 49.5173 39.736 49.496C40.056 49.4747 40.376 49.432 40.696 49.368C41.0373 49.304 41.2933 49.2293 41.464 49.144C41.5707 49.08 41.6347 49.048 41.656 49.048C41.784 49.048 41.784 49.176 41.656 49.432C41.5493 49.6667 41.3573 49.912 41.08 50.168C40.824 50.4027 40.5253 50.52 40.184 50.52C39.1387 50.52 38.2533 50.4987 37.528 50.456C36.824 50.4133 36.0347 50.392 35.16 50.392C34.9467 50.392 34.7227 50.392 34.488 50.392C34.2533 50.392 33.9973 50.4027 33.72 50.424C33.5067 50.4453 33.3573 50.5307 33.272 50.68C33.0587 51.064 32.8667 51.416 32.696 51.736C32.5467 52.056 32.3547 52.4293 32.12 52.856C31.9493 53.176 31.736 53.592 31.48 54.104C31.2453 54.5947 31.032 55.1067 30.84 55.64C30.648 56.152 30.552 56.6 30.552 56.984C30.552 57.6453 30.8613 58.104 31.48 58.36C32.0987 58.5947 32.856 58.7227 33.752 58.744C34.9893 58.744 36.2053 58.6267 37.4 58.392C38.616 58.136 39.7467 57.72 40.792 57.144C41.8587 56.5467 42.7867 55.7467 43.576 54.744C43.6187 54.7013 43.6507 54.68 43.672 54.68C43.736 54.68 43.7787 54.744 43.8 54.872C43.8213 54.9787 43.8107 55.064 43.768 55.128C43.1067 55.9387 42.4667 56.728 41.848 57.496C41.2293 58.2427 40.6107 58.712 39.992 58.904C39.544 59.032 38.8187 59.1387 37.816 59.224C36.8133 59.3307 35.704 59.384 34.488 59.384Z" fill="#414141"/>
<path d="M44.128 54.192C43.984 54.192 43.832 54.172 43.672 54.132C43.512 54.092 43.368 54.028 43.24 53.94C43.12 53.844 43.04 53.716 43 53.556C42.992 53.532 42.988 53.496 42.988 53.448C42.988 53.336 43.012 53.212 43.06 53.076C43.116 52.94 43.184 52.844 43.264 52.788C43.296 52.772 43.32 52.772 43.336 52.788C43.36 52.804 43.364 52.82 43.348 52.836C43.34 52.86 43.328 52.892 43.312 52.932C43.296 52.964 43.284 53 43.276 53.04C43.252 53.248 43.296 53.432 43.408 53.592C43.456 53.656 43.512 53.716 43.576 53.772C43.648 53.828 43.716 53.876 43.78 53.916C43.836 53.948 43.904 53.972 43.984 53.988C44.064 53.996 44.144 54 44.224 54C44.352 54 44.476 53.984 44.596 53.952C44.716 53.92 44.804 53.868 44.86 53.796C44.964 53.668 45.016 53.524 45.016 53.364C45.016 53.244 44.984 53.116 44.92 52.98C44.856 52.844 44.756 52.7 44.62 52.548C44.532 52.452 44.448 52.348 44.368 52.236C44.288 52.124 44.236 52.004 44.212 51.876C44.204 51.852 44.196 51.828 44.188 51.804C44.188 51.78 44.188 51.756 44.188 51.732C44.084 51.884 43.976 52.028 43.864 52.164C43.76 52.292 43.668 52.404 43.588 52.5C43.556 52.548 43.528 52.572 43.504 52.572C43.488 52.572 43.48 52.556 43.48 52.524C43.48 52.452 43.512 52.376 43.576 52.296C43.64 52.224 43.712 52.136 43.792 52.032C43.872 51.92 43.936 51.832 43.984 51.768C44.12 51.568 44.22 51.412 44.284 51.3C44.356 51.18 44.432 51.072 44.512 50.976C44.6 50.872 44.708 50.788 44.836 50.724C44.972 50.66 45.112 50.628 45.256 50.628C45.424 50.628 45.576 50.656 45.712 50.712C45.856 50.76 45.932 50.888 45.94 51.096C45.94 51.192 45.92 51.292 45.88 51.396C45.848 51.492 45.812 51.584 45.772 51.672C45.748 51.72 45.712 51.756 45.664 51.78C45.624 51.796 45.604 51.788 45.604 51.756C45.604 51.724 45.608 51.688 45.616 51.648C45.624 51.608 45.628 51.572 45.628 51.54C45.628 51.404 45.604 51.284 45.556 51.18C45.516 51.068 45.456 50.988 45.376 50.94C45.296 50.884 45.212 50.856 45.124 50.856C44.996 50.856 44.872 50.908 44.752 51.012C44.632 51.108 44.572 51.236 44.572 51.396C44.572 51.412 44.572 51.432 44.572 51.456C44.572 51.48 44.576 51.5 44.584 51.516C44.616 51.644 44.712 51.788 44.872 51.948C45.032 52.108 45.156 52.248 45.244 52.368C45.396 52.576 45.472 52.788 45.472 53.004C45.472 53.22 45.408 53.42 45.28 53.604C45.16 53.78 44.996 53.92 44.788 54.024C44.588 54.136 44.368 54.192 44.128 54.192ZM48.3451 54.06C48.1451 54.06 47.9931 53.992 47.8891 53.856C47.8251 53.76 47.7611 53.616 47.6971 53.424C47.6331 53.232 47.5771 53.032 47.5291 52.824C47.4811 52.616 47.4411 52.448 47.4091 52.32C47.1851 52.608 46.9851 52.896 46.8091 53.184C46.6411 53.472 46.5291 53.696 46.4731 53.856C46.4571 53.904 46.4011 53.944 46.3051 53.976C46.2171 54.008 46.1291 54.024 46.0411 54.024C45.9131 54.024 45.8651 53.984 45.8971 53.904C46.1451 53.352 46.3811 52.82 46.6051 52.308C46.8291 51.796 47.0651 51.28 47.3131 50.76C47.5691 50.24 47.8571 49.7 48.1771 49.14C48.4011 48.732 48.6691 48.34 48.9811 47.964C49.3011 47.58 49.6411 47.268 50.0011 47.028C50.3611 46.78 50.7251 46.656 51.0931 46.656C51.2131 46.656 51.3251 46.688 51.4291 46.752C51.5331 46.816 51.5851 46.916 51.5851 47.052V47.4C51.5851 47.432 51.5611 47.448 51.5131 47.448C51.4891 47.448 51.4771 47.44 51.4771 47.424C51.4771 47.296 51.4211 47.212 51.3091 47.172C51.1971 47.124 51.0891 47.1 50.9851 47.1C50.7051 47.1 50.4211 47.156 50.1331 47.268C49.8131 47.396 49.5451 47.588 49.3291 47.844C49.1131 48.1 48.9131 48.372 48.7291 48.66C48.4891 49.028 48.2531 49.46 48.0211 49.956C47.7891 50.444 47.5731 50.936 47.3731 51.432C47.1811 51.928 47.0091 52.376 46.8571 52.776C46.9451 52.664 47.0331 52.552 47.1211 52.44C47.2091 52.328 47.2931 52.224 47.3731 52.128C47.3731 52.112 47.3691 52.096 47.3611 52.08C47.3611 52.064 47.3611 52.048 47.3611 52.032C47.3611 51.976 47.3731 51.928 47.3971 51.888C47.4211 51.848 47.4531 51.8 47.4931 51.744C47.5491 51.664 47.6011 51.604 47.6491 51.564C47.6971 51.516 47.7491 51.456 47.8051 51.384L47.8411 51.588C48.1931 51.228 48.5011 50.968 48.7651 50.808C48.9491 50.696 49.1291 50.64 49.3051 50.64C49.4811 50.64 49.5691 50.708 49.5691 50.844C49.5691 50.956 49.5131 51.096 49.4011 51.264C49.3611 51.32 49.3371 51.36 49.3291 51.384C49.3211 51.408 49.3051 51.432 49.2811 51.456C49.2731 51.464 49.2571 51.464 49.2331 51.456C49.2091 51.448 49.1971 51.436 49.1971 51.42C49.1971 51.324 49.1651 51.264 49.1011 51.24C49.0371 51.208 48.9651 51.192 48.8851 51.192C48.7331 51.192 48.5691 51.248 48.3931 51.36C48.2251 51.464 48.0531 51.608 47.8771 51.792C47.9171 51.992 47.9611 52.212 48.0091 52.452C48.0651 52.684 48.1251 52.9 48.1891 53.1C48.2531 53.3 48.3131 53.448 48.3691 53.544C48.4091 53.608 48.4651 53.652 48.5371 53.676C48.6091 53.692 48.6691 53.7 48.7171 53.7C48.8291 53.7 48.9571 53.644 49.1011 53.532C49.2531 53.412 49.4051 53.272 49.5571 53.112C49.7171 52.944 49.8611 52.78 49.9891 52.62C50.1251 52.46 50.2291 52.332 50.3011 52.236C50.3331 52.276 50.3411 52.316 50.3251 52.356C50.3171 52.404 50.2931 52.456 50.2531 52.512C50.2211 52.56 50.1891 52.604 50.1571 52.644C49.9971 52.844 49.8251 53.048 49.6411 53.256C49.4571 53.456 49.2611 53.636 49.0531 53.796C48.9651 53.868 48.8571 53.932 48.7291 53.988C48.6011 54.036 48.4731 54.06 48.3451 54.06ZM52.5837 49.416C52.4717 49.416 52.3917 49.38 52.3437 49.308C52.3117 49.268 52.2957 49.216 52.2957 49.152C52.2957 49.024 52.3557 48.92 52.4757 48.84C52.5637 48.792 52.6437 48.768 52.7157 48.768C52.8357 48.768 52.9197 48.804 52.9677 48.876C52.9997 48.916 53.0157 48.968 53.0157 49.032C53.0157 49.16 52.9517 49.264 52.8237 49.344C52.7517 49.392 52.6717 49.416 52.5837 49.416ZM50.4957 54.036C50.4157 54.036 50.3477 54.02 50.2917 53.988C50.2437 53.956 50.2197 53.896 50.2197 53.808C50.2197 53.696 50.2477 53.564 50.3037 53.412C50.3677 53.26 50.4357 53.108 50.5077 52.956C50.5877 52.804 50.6477 52.68 50.6877 52.584C50.7437 52.472 50.8117 52.328 50.8917 52.152C50.9797 51.968 51.0597 51.796 51.1317 51.636C51.2117 51.468 51.2677 51.352 51.2997 51.288C51.1877 51.408 51.0517 51.56 50.8917 51.744C50.7397 51.92 50.5957 52.092 50.4597 52.26C50.3237 52.428 50.2197 52.56 50.1477 52.656C50.1237 52.688 50.1037 52.704 50.0877 52.704C50.0717 52.704 50.0637 52.684 50.0637 52.644C50.0637 52.58 50.0837 52.52 50.1237 52.464C50.2757 52.272 50.4437 52.056 50.6277 51.816C50.8197 51.576 50.9917 51.356 51.1437 51.156C51.2957 50.948 51.3917 50.812 51.4317 50.748C51.5197 50.732 51.6477 50.708 51.8157 50.676C51.9917 50.644 52.1117 50.6 52.1757 50.544C52.1997 50.52 52.2237 50.508 52.2477 50.508C52.2637 50.508 52.2717 50.524 52.2717 50.556C52.2797 50.58 52.2717 50.608 52.2477 50.64C52.1997 50.696 52.1157 50.832 51.9957 51.048C51.8757 51.264 51.7477 51.504 51.6117 51.768C51.4837 52.024 51.3637 52.256 51.2517 52.464C51.1397 52.68 51.0437 52.888 50.9637 53.088C50.8837 53.288 50.8437 53.432 50.8437 53.52C50.8437 53.632 50.8997 53.688 51.0117 53.688C51.1157 53.688 51.2477 53.624 51.4077 53.496C51.5757 53.368 51.7437 53.216 51.9117 53.04C52.0797 52.856 52.2277 52.688 52.3557 52.536C52.3957 52.488 52.4437 52.432 52.4997 52.368C52.5637 52.296 52.6037 52.252 52.6197 52.236C52.6357 52.252 52.6437 52.28 52.6437 52.32C52.6357 52.376 52.6157 52.432 52.5837 52.488C52.5517 52.536 52.5197 52.58 52.4877 52.62C52.3197 52.828 52.1357 53.044 51.9357 53.268C51.7357 53.484 51.5157 53.668 51.2757 53.82C51.0357 53.964 50.7757 54.036 50.4957 54.036ZM53.1163 54.192C52.9723 54.192 52.8203 54.172 52.6603 54.132C52.5003 54.092 52.3563 54.028 52.2283 53.94C52.1083 53.844 52.0283 53.716 51.9883 53.556C51.9803 53.532 51.9763 53.496 51.9763 53.448C51.9763 53.336 52.0003 53.212 52.0483 53.076C52.1043 52.94 52.1723 52.844 52.2523 52.788C52.2843 52.772 52.3083 52.772 52.3243 52.788C52.3483 52.804 52.3523 52.82 52.3363 52.836C52.3283 52.86 52.3163 52.892 52.3003 52.932C52.2843 52.964 52.2723 53 52.2643 53.04C52.2403 53.248 52.2843 53.432 52.3963 53.592C52.4443 53.656 52.5003 53.716 52.5643 53.772C52.6363 53.828 52.7043 53.876 52.7683 53.916C52.8243 53.948 52.8923 53.972 52.9723 53.988C53.0523 53.996 53.1323 54 53.2123 54C53.3403 54 53.4643 53.984 53.5843 53.952C53.7043 53.92 53.7923 53.868 53.8483 53.796C53.9523 53.668 54.0043 53.524 54.0043 53.364C54.0043 53.244 53.9723 53.116 53.9083 52.98C53.8443 52.844 53.7443 52.7 53.6083 52.548C53.5203 52.452 53.4363 52.348 53.3563 52.236C53.2763 52.124 53.2243 52.004 53.2003 51.876C53.1923 51.852 53.1843 51.828 53.1763 51.804C53.1763 51.78 53.1763 51.756 53.1763 51.732C53.0723 51.884 52.9643 52.028 52.8523 52.164C52.7483 52.292 52.6563 52.404 52.5763 52.5C52.5443 52.548 52.5163 52.572 52.4923 52.572C52.4763 52.572 52.4683 52.556 52.4683 52.524C52.4683 52.452 52.5003 52.376 52.5643 52.296C52.6283 52.224 52.7003 52.136 52.7803 52.032C52.8603 51.92 52.9243 51.832 52.9723 51.768C53.1083 51.568 53.2083 51.412 53.2723 51.3C53.3443 51.18 53.4203 51.072 53.5003 50.976C53.5883 50.872 53.6963 50.788 53.8243 50.724C53.9603 50.66 54.1003 50.628 54.2443 50.628C54.4123 50.628 54.5643 50.656 54.7003 50.712C54.8443 50.76 54.9203 50.888 54.9283 51.096C54.9283 51.192 54.9083 51.292 54.8683 51.396C54.8363 51.492 54.8003 51.584 54.7603 51.672C54.7363 51.72 54.7003 51.756 54.6523 51.78C54.6123 51.796 54.5923 51.788 54.5923 51.756C54.5923 51.724 54.5963 51.688 54.6043 51.648C54.6123 51.608 54.6163 51.572 54.6163 51.54C54.6163 51.404 54.5923 51.284 54.5443 51.18C54.5043 51.068 54.4443 50.988 54.3643 50.94C54.2843 50.884 54.2003 50.856 54.1123 50.856C53.9843 50.856 53.8603 50.908 53.7403 51.012C53.6203 51.108 53.5603 51.236 53.5603 51.396C53.5603 51.412 53.5603 51.432 53.5603 51.456C53.5603 51.48 53.5643 51.5 53.5723 51.516C53.6043 51.644 53.7003 51.788 53.8603 51.948C54.0203 52.108 54.1443 52.248 54.2323 52.368C54.3843 52.576 54.4603 52.788 54.4603 53.004C54.4603 53.22 54.3963 53.42 54.2683 53.604C54.1483 53.78 53.9843 53.92 53.7763 54.024C53.5763 54.136 53.3563 54.192 53.1163 54.192ZM51.4243 56.28C51.3683 56.28 51.3403 56.26 51.3403 56.22C51.3403 56.196 51.3563 56.176 51.3883 56.16C51.4203 56.144 51.4443 56.136 51.4603 56.136C51.5003 56.128 51.5843 56.124 51.7123 56.124C51.8403 56.124 51.9763 56.112 52.1203 56.088C52.2643 56.064 52.3963 56.012 52.5163 55.932C52.6443 55.86 52.7243 55.752 52.7563 55.608C52.7723 55.52 52.7443 55.432 52.6723 55.344C52.6003 55.256 52.5243 55.16 52.4443 55.056C52.3643 54.96 52.3243 54.864 52.3243 54.768C52.3243 54.6 52.4083 54.444 52.5763 54.3C52.7523 54.164 52.9603 54.096 53.2003 54.096H53.4523C53.2763 54.128 53.1203 54.196 52.9843 54.3C52.8483 54.404 52.7803 54.516 52.7803 54.636C52.7803 54.732 52.8243 54.824 52.9123 54.912C53.0003 55 53.0803 55.088 53.1523 55.176C53.2323 55.272 53.2603 55.384 53.2363 55.512C53.1963 55.696 53.0683 55.84 52.8523 55.944C52.6443 56.056 52.4083 56.14 52.1443 56.196C51.8803 56.252 51.6403 56.28 51.4243 56.28ZM55.8693 54.096C55.5413 54.096 55.3133 54.032 55.1853 53.904C55.0573 53.776 54.9933 53.62 54.9933 53.436C54.9933 53.204 55.0533 52.956 55.1733 52.692C55.3013 52.428 55.4213 52.204 55.5333 52.02C55.6613 51.828 55.8333 51.628 56.0493 51.42C56.2653 51.212 56.5013 51.036 56.7573 50.892C57.0133 50.748 57.2613 50.676 57.5013 50.676C57.7093 50.676 57.8533 50.728 57.9333 50.832C58.0133 50.928 58.0533 51.044 58.0533 51.18C58.0533 51.428 57.9773 51.632 57.8253 51.792C57.6813 51.952 57.5013 52.084 57.2853 52.188C57.0693 52.284 56.8613 52.364 56.6613 52.428C56.5413 52.46 56.4013 52.492 56.2413 52.524C56.0813 52.556 55.9293 52.572 55.7853 52.572C55.7293 52.716 55.6853 52.856 55.6533 52.992C55.6213 53.128 55.6053 53.252 55.6053 53.364C55.6053 53.5 55.6373 53.612 55.7013 53.7C55.7733 53.788 55.8893 53.832 56.0493 53.832C56.1133 53.832 56.1893 53.824 56.2773 53.808C56.3653 53.792 56.4613 53.768 56.5653 53.736C56.8053 53.656 57.0413 53.528 57.2733 53.352C57.5053 53.176 57.7173 52.988 57.9093 52.788C58.1093 52.58 58.2613 52.408 58.3653 52.272C58.3893 52.296 58.4013 52.324 58.4013 52.356C58.4013 52.396 58.3733 52.46 58.3173 52.548C58.1573 52.772 57.9493 53.004 57.6933 53.244C57.4373 53.484 57.1533 53.688 56.8413 53.856C56.5293 54.016 56.2053 54.096 55.8693 54.096ZM55.8813 52.332C55.9853 52.34 56.1013 52.34 56.2293 52.332C56.3653 52.316 56.4973 52.288 56.6253 52.248C56.9533 52.152 57.1893 52 57.3333 51.792C57.4853 51.576 57.5613 51.384 57.5613 51.216C57.5613 51.12 57.5413 51.04 57.5013 50.976C57.4613 50.912 57.3973 50.88 57.3093 50.88C57.0773 50.88 56.8693 50.968 56.6853 51.144C56.5013 51.312 56.3413 51.508 56.2053 51.732C56.0693 51.956 55.9613 52.156 55.8813 52.332ZM59.9496 54.072C59.8296 54.072 59.7216 54.048 59.6256 54C59.5376 53.952 59.4936 53.864 59.4936 53.736C59.4936 53.664 59.5096 53.584 59.5416 53.496C59.6136 53.312 59.7096 53.088 59.8296 52.824C59.9576 52.56 60.0856 52.304 60.2136 52.056C60.3416 51.8 60.4416 51.592 60.5136 51.432C60.5616 51.336 60.5856 51.268 60.5856 51.228C60.5856 51.156 60.5456 51.14 60.4656 51.18C60.3856 51.22 60.2976 51.276 60.2016 51.348C60.1056 51.42 60.0336 51.476 59.9856 51.516C59.7776 51.708 59.5576 51.936 59.3256 52.2C59.1016 52.456 58.8936 52.728 58.7016 53.016C58.5176 53.296 58.3736 53.576 58.2696 53.856C58.2616 53.904 58.2096 53.944 58.1136 53.976C58.0176 54.008 57.9296 54.024 57.8496 54.024C57.7216 54.024 57.6736 53.984 57.7056 53.904C57.8896 53.488 58.0776 53.028 58.2696 52.524C58.4696 52.02 58.6936 51.504 58.9416 50.976C59.1256 50.576 59.3296 50.164 59.5536 49.74C59.7856 49.316 60.0416 48.912 60.3216 48.528C60.6016 48.136 60.9096 47.792 61.2456 47.496C61.5416 47.24 61.8656 47.032 62.2176 46.872C62.5776 46.704 62.9656 46.62 63.3816 46.62C63.5656 46.62 63.7256 46.66 63.8616 46.74C63.9976 46.812 64.0736 46.944 64.0896 47.136V47.244C64.0896 47.356 64.0776 47.468 64.0536 47.58C64.0456 47.612 64.0136 47.628 63.9576 47.628C63.9336 47.628 63.9256 47.624 63.9336 47.616C63.9656 47.408 63.9096 47.26 63.7656 47.172C63.6296 47.084 63.4536 47.04 63.2376 47.04C62.8456 47.04 62.4856 47.112 62.1576 47.256C61.8296 47.4 61.5256 47.592 61.2456 47.832C60.8136 48.208 60.4376 48.688 60.1176 49.272C59.7976 49.856 59.5216 50.452 59.2896 51.06C59.1776 51.356 59.0656 51.652 58.9536 51.948C58.8496 52.244 58.7496 52.52 58.6536 52.776C59.0136 52.296 59.3576 51.884 59.6856 51.54C60.0216 51.196 60.3136 50.952 60.5616 50.808C60.7616 50.696 60.9416 50.64 61.1016 50.64C61.2536 50.64 61.3296 50.704 61.3296 50.832C61.3296 50.944 61.2736 51.088 61.1616 51.264C61.1056 51.352 61.0176 51.5 60.8976 51.708C60.7856 51.916 60.6656 52.144 60.5376 52.392C60.4176 52.632 60.3136 52.856 60.2256 53.064C60.1376 53.272 60.0936 53.424 60.0936 53.52C60.0936 53.648 60.1496 53.712 60.2616 53.712C60.3256 53.712 60.3976 53.692 60.4776 53.652C60.5656 53.612 60.6296 53.576 60.6696 53.544C60.8856 53.384 61.0976 53.188 61.3056 52.956C61.5136 52.724 61.6896 52.52 61.8336 52.344C61.8416 52.336 61.8456 52.348 61.8456 52.38C61.8456 52.412 61.8376 52.46 61.8216 52.524C61.8136 52.58 61.7896 52.628 61.7496 52.668C61.6616 52.788 61.5696 52.904 61.4736 53.016C61.3856 53.12 61.2976 53.224 61.2096 53.328C61.0576 53.504 60.8736 53.672 60.6576 53.832C60.4496 53.992 60.2136 54.072 59.9496 54.072ZM64.197 49.416C64.085 49.416 64.005 49.38 63.957 49.308C63.925 49.268 63.909 49.216 63.909 49.152C63.909 49.024 63.969 48.92 64.089 48.84C64.177 48.792 64.257 48.768 64.329 48.768C64.449 48.768 64.533 48.804 64.581 48.876C64.613 48.916 64.629 48.968 64.629 49.032C64.629 49.16 64.565 49.264 64.437 49.344C64.365 49.392 64.285 49.416 64.197 49.416ZM62.109 54.036C62.029 54.036 61.961 54.02 61.905 53.988C61.857 53.956 61.833 53.896 61.833 53.808C61.833 53.696 61.861 53.564 61.917 53.412C61.981 53.26 62.049 53.108 62.121 52.956C62.201 52.804 62.261 52.68 62.301 52.584C62.357 52.472 62.425 52.328 62.505 52.152C62.593 51.968 62.673 51.796 62.745 51.636C62.825 51.468 62.881 51.352 62.913 51.288C62.801 51.408 62.665 51.56 62.505 51.744C62.353 51.92 62.209 52.092 62.073 52.26C61.937 52.428 61.833 52.56 61.761 52.656C61.737 52.688 61.717 52.704 61.701 52.704C61.685 52.704 61.677 52.684 61.677 52.644C61.677 52.58 61.697 52.52 61.737 52.464C61.889 52.272 62.057 52.056 62.241 51.816C62.433 51.576 62.605 51.356 62.757 51.156C62.909 50.948 63.005 50.812 63.045 50.748C63.133 50.732 63.261 50.708 63.429 50.676C63.605 50.644 63.725 50.6 63.789 50.544C63.813 50.52 63.837 50.508 63.861 50.508C63.877 50.508 63.885 50.524 63.885 50.556C63.893 50.58 63.885 50.608 63.861 50.64C63.813 50.696 63.729 50.832 63.609 51.048C63.489 51.264 63.361 51.504 63.225 51.768C63.097 52.024 62.977 52.256 62.865 52.464C62.753 52.68 62.657 52.888 62.577 53.088C62.497 53.288 62.457 53.432 62.457 53.52C62.457 53.632 62.513 53.688 62.625 53.688C62.729 53.688 62.861 53.624 63.021 53.496C63.189 53.368 63.357 53.216 63.525 53.04C63.693 52.856 63.841 52.688 63.969 52.536C64.009 52.488 64.057 52.432 64.113 52.368C64.177 52.296 64.217 52.252 64.233 52.236C64.249 52.252 64.257 52.28 64.257 52.32C64.249 52.376 64.229 52.432 64.197 52.488C64.165 52.536 64.133 52.58 64.101 52.62C63.933 52.828 63.749 53.044 63.549 53.268C63.349 53.484 63.129 53.668 62.889 53.82C62.649 53.964 62.389 54.036 62.109 54.036ZM64.0816 54.168C64.0496 54.168 64.0496 54.136 64.0816 54.072C64.1216 54 64.1576 53.92 64.1896 53.832C64.2296 53.744 64.2696 53.648 64.3096 53.544C64.3896 53.352 64.4776 53.136 64.5736 52.896C64.6696 52.656 64.7616 52.424 64.8496 52.2C64.9376 51.968 65.0136 51.772 65.0776 51.612C65.1496 51.444 65.1976 51.336 65.2216 51.288C65.1096 51.408 64.9736 51.56 64.8136 51.744C64.6616 51.92 64.5176 52.092 64.3816 52.26C64.2456 52.428 64.1416 52.56 64.0696 52.656C64.0456 52.688 64.0256 52.704 64.0096 52.704C63.9936 52.704 63.9856 52.684 63.9856 52.644C63.9856 52.58 64.0056 52.52 64.0456 52.464C64.1976 52.272 64.3656 52.056 64.5496 51.816C64.7416 51.576 64.9136 51.356 65.0656 51.156C65.2176 50.948 65.3136 50.812 65.3536 50.748C65.4416 50.732 65.5696 50.708 65.7376 50.676C65.9136 50.644 66.0336 50.6 66.0976 50.544C66.1216 50.52 66.1456 50.508 66.1696 50.508C66.1856 50.508 66.1936 50.524 66.1936 50.556C66.2016 50.58 66.1936 50.608 66.1696 50.64C66.1216 50.688 66.0496 50.792 65.9536 50.952C65.8656 51.112 65.7656 51.296 65.6536 51.504C65.5416 51.712 65.4336 51.912 65.3296 52.104C65.4096 51.984 65.5136 51.844 65.6416 51.684C65.7776 51.516 65.9256 51.356 66.0856 51.204C66.2456 51.044 66.4056 50.912 66.5656 50.808C66.7336 50.704 66.8896 50.652 67.0336 50.652C67.1376 50.652 67.2256 50.676 67.2976 50.724C67.3696 50.764 67.4256 50.84 67.4656 50.952C67.4896 51.008 67.5016 51.072 67.5016 51.144C67.5016 51.28 67.4656 51.412 67.3936 51.54C67.3296 51.66 67.2816 51.752 67.2496 51.816C67.2416 51.84 67.2136 51.864 67.1656 51.888C67.1176 51.904 67.0976 51.896 67.1056 51.864C67.1136 51.824 67.1176 51.784 67.1176 51.744C67.1256 51.704 67.1296 51.66 67.1296 51.612C67.1296 51.476 67.1016 51.352 67.0456 51.24C66.9976 51.128 66.9056 51.072 66.7696 51.072C66.6416 51.072 66.4856 51.152 66.3016 51.312C66.1176 51.472 65.9336 51.656 65.7496 51.864C65.5176 52.136 65.3336 52.396 65.1976 52.644C65.0616 52.884 64.9496 53.12 64.8616 53.352C64.8136 53.48 64.7656 53.608 64.7176 53.736C64.6696 53.856 64.6336 53.952 64.6096 54.024C64.5056 54.032 64.4016 54.056 64.2976 54.096C64.1936 54.144 64.1216 54.168 64.0816 54.168Z" fill="#414141"/>
<path d="M35.38 39.17C35.0867 39.17 34.8667 39.1167 34.72 39.01C34.58 38.9033 34.4933 38.7667 34.46 38.6C34.4267 38.4267 34.4267 38.2467 34.46 38.06C34.4933 37.8667 34.5367 37.6867 34.59 37.52L35.69 34.17C35.7367 34.0367 35.79 33.95 35.85 33.91C35.9167 33.87 36.0133 33.85 36.14 33.85C36.3467 33.85 36.4767 33.8833 36.53 33.95C36.59 34.01 36.5967 34.1067 36.55 34.24L35.48 37.51C35.36 37.8633 35.3033 38.1033 35.31 38.23C35.3233 38.3567 35.4067 38.42 35.56 38.42C35.6533 38.42 35.7233 38.46 35.77 38.54C35.8167 38.6133 35.8333 38.7 35.82 38.8C35.8133 38.8933 35.7733 38.9767 35.7 39.05C35.6267 39.13 35.52 39.17 35.38 39.17ZM36.76 32.31C36.6267 32.31 36.5133 32.2667 36.42 32.18C36.3267 32.0933 36.28 31.9667 36.28 31.8C36.28 31.62 36.3367 31.45 36.45 31.29C36.57 31.13 36.7533 31.05 37 31.05C37.14 31.05 37.2567 31.0933 37.35 31.18C37.4433 31.26 37.49 31.3867 37.49 31.56C37.49 31.74 37.43 31.91 37.31 32.07C37.1967 32.23 37.0133 32.31 36.76 32.31ZM35.338 39.17C35.2114 39.17 35.128 39.13 35.088 39.05C35.0414 38.9767 35.028 38.8933 35.048 38.8C35.068 38.7 35.118 38.6133 35.198 38.54C35.278 38.46 35.3814 38.42 35.508 38.42C35.708 38.42 35.9247 38.3433 36.158 38.19C36.3847 38.0367 36.648 37.79 36.948 37.45C37.2414 37.1033 37.588 36.6467 37.988 36.08C38.388 35.5067 38.8514 34.8033 39.378 33.97C39.4314 33.8833 39.5047 33.85 39.598 33.87C39.698 33.89 39.778 33.9367 39.838 34.01C39.9047 34.0833 39.9114 34.1633 39.858 34.25C39.3314 35.17 38.858 35.9467 38.438 36.58C38.018 37.2067 37.6347 37.71 37.288 38.09C36.9414 38.47 36.6114 38.7467 36.298 38.92C35.9847 39.0867 35.6647 39.17 35.338 39.17ZM40.828 39.17C40.688 39.17 40.548 39.16 40.408 39.14C40.268 39.12 40.118 39.1067 39.958 39.1C39.8047 39.0933 39.628 39.11 39.428 39.15L39.548 38.92C39.7947 38.8133 40.0147 38.7233 40.208 38.65C40.4014 38.5767 40.5647 38.52 40.698 38.48C40.838 38.44 40.9414 38.42 41.008 38.42C41.068 38.42 41.108 38.46 41.128 38.54C41.148 38.6133 41.148 38.7 41.128 38.8C41.1147 38.8933 41.0814 38.9767 41.028 39.05C40.9747 39.13 40.908 39.17 40.828 39.17ZM39.158 39.19C38.8314 39.19 38.5347 39.14 38.268 39.04C38.008 38.94 37.828 38.8333 37.728 38.72C37.628 38.6133 37.5814 38.5233 37.588 38.45C37.5947 38.37 37.6414 38.29 37.728 38.21C37.808 38.13 37.878 38.0933 37.938 38.1C38.0047 38.1067 38.0914 38.1467 38.198 38.22C38.3114 38.2933 38.4447 38.36 38.598 38.42C38.758 38.4733 38.928 38.5 39.108 38.5C39.4547 38.5 39.7247 38.4167 39.918 38.25C40.1114 38.0833 40.208 37.8533 40.208 37.56C40.208 37.3933 40.1814 37.2267 40.128 37.06C40.0747 36.8867 40.0047 36.7133 39.918 36.54C39.8314 36.3667 39.7414 36.19 39.648 36.01C39.5547 35.83 39.4647 35.6433 39.378 35.45C39.2914 35.2567 39.2214 35.0567 39.168 34.85C39.1147 34.6367 39.088 34.4167 39.088 34.19C39.088 33.8367 39.168 33.5867 39.328 33.44C39.4947 33.2867 39.668 33.21 39.848 33.21C40.0014 33.21 40.118 33.2533 40.198 33.34C40.2847 33.42 40.328 33.5233 40.328 33.65C40.328 33.7833 40.2747 33.9267 40.168 34.08C40.068 34.2333 39.9614 34.3767 39.848 34.51C39.848 34.67 39.878 34.83 39.938 34.99C39.998 35.1433 40.0747 35.3033 40.168 35.47C40.2614 35.63 40.358 35.7933 40.458 35.96C40.5647 36.1267 40.6647 36.3 40.758 36.48C40.8514 36.6533 40.928 36.8333 40.988 37.02C41.048 37.2 41.078 37.39 41.078 37.59C41.078 38.07 40.9047 38.4567 40.558 38.75C40.218 39.0433 39.7514 39.19 39.158 39.19ZM40.8261 39.17C40.7328 39.17 40.6628 39.13 40.6161 39.05C40.5694 38.9767 40.5528 38.8933 40.5661 38.8C40.5728 38.7 40.6128 38.6133 40.6861 38.54C40.7594 38.46 40.8661 38.42 41.0061 38.42C41.1661 38.42 41.3494 38.34 41.5561 38.18C41.7561 38.02 41.9928 37.77 42.2661 37.43C42.5394 37.0833 42.8628 36.6333 43.2361 36.08C43.6094 35.52 44.0461 34.8433 44.5461 34.05C44.6061 33.9567 44.6828 33.9167 44.7761 33.93C44.8761 33.9433 44.9561 33.9867 45.0161 34.06C45.0761 34.1333 45.0794 34.2133 45.0261 34.3C44.4594 35.26 43.9694 36.0567 43.5561 36.69C43.1494 37.3167 42.7928 37.8133 42.4861 38.18C42.1794 38.54 41.8961 38.7967 41.6361 38.95C41.3694 39.0967 41.0994 39.17 40.8261 39.17ZM44.1261 39.17C43.8328 39.17 43.6128 39.1167 43.4661 39.01C43.3261 38.9033 43.2394 38.7667 43.2061 38.6C43.1728 38.4267 43.1728 38.2467 43.2061 38.06C43.2394 37.8667 43.2828 37.6867 43.3361 37.52L44.4361 34.17C44.4828 34.0367 44.5361 33.95 44.5961 33.91C44.6628 33.87 44.7594 33.85 44.8861 33.85C45.0928 33.85 45.2228 33.8833 45.2761 33.95C45.3361 34.01 45.3428 34.1067 45.2961 34.24L44.2261 37.51C44.1061 37.8633 44.0494 38.1033 44.0561 38.23C44.0694 38.3567 44.1528 38.42 44.3061 38.42C44.3994 38.42 44.4694 38.46 44.5161 38.54C44.5628 38.6133 44.5794 38.7 44.5661 38.8C44.5594 38.8933 44.5194 38.9767 44.4461 39.05C44.3728 39.13 44.2661 39.17 44.1261 39.17ZM45.5061 32.31C45.3728 32.31 45.2594 32.2667 45.1661 32.18C45.0728 32.0933 45.0261 31.9667 45.0261 31.8C45.0261 31.62 45.0828 31.45 45.1961 31.29C45.3161 31.13 45.4994 31.05 45.7461 31.05C45.8861 31.05 46.0028 31.0933 46.0961 31.18C46.1894 31.26 46.2361 31.3867 46.2361 31.56C46.2361 31.74 46.1761 31.91 46.0561 32.07C45.9428 32.23 45.7594 32.31 45.5061 32.31ZM44.078 39.17C43.9847 39.17 43.9147 39.13 43.868 39.05C43.8214 38.9767 43.8047 38.8933 43.818 38.8C43.8247 38.7 43.8647 38.6133 43.938 38.54C44.0114 38.46 44.118 38.42 44.258 38.42C44.418 38.42 44.6047 38.3567 44.818 38.23C45.0314 38.1033 45.278 37.9 45.558 37.62C45.8314 37.3333 46.1414 36.9567 46.488 36.49C46.8414 36.0167 47.2314 35.4367 47.658 34.75C47.718 34.6567 47.7947 34.6167 47.888 34.63C47.988 34.6433 48.0647 34.6867 48.118 34.76C48.178 34.8333 48.1814 34.9133 48.128 35C47.628 35.84 47.1847 36.53 46.798 37.07C46.4114 37.61 46.0614 38.0333 45.748 38.34C45.4347 38.6467 45.1447 38.8633 44.878 38.99C44.6047 39.11 44.338 39.17 44.078 39.17ZM47.288 39.15C47.0214 39.15 46.8114 39.09 46.658 38.97C46.5047 38.8433 46.4147 38.66 46.388 38.42C46.3614 38.1733 46.408 37.8733 46.528 37.52L47.408 34.8H46.648C46.5747 34.8 46.5247 34.7667 46.498 34.7C46.4714 34.6333 46.4747 34.5333 46.508 34.4C46.548 34.2667 46.6014 34.1667 46.668 34.1C46.7347 34.0333 46.8047 34 46.878 34H47.678L48.328 32.02C48.368 31.8867 48.418 31.8 48.478 31.76C48.5447 31.72 48.6447 31.7 48.778 31.7C48.9847 31.7 49.1147 31.7333 49.168 31.8C49.228 31.86 49.2347 31.9567 49.188 32.09L48.548 34H49.808C49.8814 34 49.9314 34.0333 49.958 34.1C49.9914 34.16 49.988 34.26 49.948 34.4C49.9147 34.5267 49.8647 34.6267 49.798 34.7C49.7314 34.7667 49.6614 34.8 49.588 34.8H48.288L47.308 37.75C47.2347 37.9767 47.2114 38.14 47.238 38.24C47.2714 38.34 47.3514 38.39 47.478 38.39C47.6114 38.39 47.768 38.3333 47.948 38.22C48.1347 38.1 48.3214 37.9167 48.508 37.67C48.568 37.6033 48.628 37.5667 48.688 37.56C48.7547 37.5533 48.8347 37.58 48.928 37.64C49.028 37.7 49.0847 37.7633 49.098 37.83C49.1114 37.89 49.1047 37.9467 49.078 38C49.0047 38.1333 48.8847 38.29 48.718 38.47C48.5514 38.65 48.348 38.81 48.108 38.95C47.868 39.0833 47.5947 39.15 47.288 39.15Z" fill="#414141"/>
</svg>
